<svg version="1.2" xmlns="http://www.w3.org/2000/svg" viewBox="0 0 1000 1000" width="512" height="512"><style>.a{fill:#279}.b{fill:#eee}.c{fill:#fff}</style><path fill-rule="evenodd" class="a" d="m500 0c276.1 0 500 223.9 500 500 0 276.1-223.9 500-500 500-276.1 0-500-223.9-500-500 0-276.1 223.9-500 500-500z"/><path fill-rule="evenodd" class="b" d="m756.2 198.1h29v597.6h-29c-151.8 0-275-123.1-275-275v-47.6c0-151.9 123.2-275 275-275zm-64.2 296.4c0-21.3-17.2-38.5-38.5-38.5-21.3 0-38.5 17.2-38.5 38.5 0 21.3 17.2 38.5 38.5 38.5 21.3 0 38.5-17.2 38.5-38.5zm0-138c0-21.3-17.2-38.5-38.5-38.5-21.3 0-38.5 17.2-38.5 38.5 0 21.3 17.2 38.5 38.5 38.5 21.3 0 38.5-17.2 38.5-38.5zm-70 68c0-21.3-17.2-38.5-38.5-38.5-21.3 0-38.5 17.2-38.5 38.5 0 21.3 17.2 38.5 38.5 38.5 21.3 0 38.5-17.2 38.5-38.5zm140 2c0-21.3-17.2-38.5-38.5-38.5-21.3 0-38.5 17.2-38.5 38.5 0 21.3 17.2 38.5 38.5 38.5 21.3 0 38.5-17.2 38.5-38.5z"/><path fill-rule="evenodd" class="c" d="m242.5 212c151.9 0 275 123.1 275 275v47.6c0 151.8-123.1 275-275 275h-28.9v-597.6zm206.5 405c0-46.5-37.6-84-84-84-46.5 0-84 37.5-84 84 0 46.5 37.5 84 84 84 46.4 0 84-37.5 84-84z"/></svg>